<?xml version="1.0" encoding="utf-8"?>
<!-- Generator: Adobe Illustrator 27.7.0, SVG Export Plug-In . SVG Version: 6.00 Build 0)  -->
<svg version="1.1" xmlns="http://www.w3.org/2000/svg" xmlns:xlink="http://www.w3.org/1999/xlink" x="0px" y="0px"
	 viewBox="0 0 159 110" style="enable-background:new 0 0 159 110;" xml:space="preserve">
<style type="text/css">
	.st0{fill:#0000CC;}
	.st1{fill:#FFFFFF;}
</style>
<g id="Layer_1">
	<path class="st0" d="M154,17.5c-1.8-6.7-7.1-12-13.8-13.8c-9-3.5-96.6-5.2-122,0.1c-6.7,1.8-12,7.1-13.8,13.8
		C0.3,35.5,0,74.2,4.5,92.5c1.8,6.7,7.1,12,13.8,13.8c17.9,4.1,103,4.7,122,0c6.7-1.8,12-7.1,13.8-13.8
		C158.5,73,158.8,36.7,154,17.5z"/>
	<path class="st1" d="M149.7,19.6c-1.7-6.3-6.7-11.3-13-13c-8.5-3.3-91.1-4.9-115,0.1c-6.3,1.7-11.3,6.7-13,13
		C4.8,36.6,4.5,73.1,8.8,90.4c1.7,6.3,6.7,11.3,13,13c16.9,3.9,97.1,4.4,115,0c6.3-1.7,11.3-6.7,13-13
		C153.9,72,154.2,37.7,149.7,19.6z"/>
</g>
<g id="Layer_3">
	<path class="st0" d="M145.5,21.8c-1.6-6-6.3-10.6-12.2-12.2c-8-3.1-85.6-4.6-108.1,0.1c-6,1.6-10.6,6.3-12.2,12.2
		C9.3,37.7,9.1,72,13,88.2c1.6,6,6.3,10.6,12.2,12.2c15.9,3.6,91.2,4.2,108.1,0c6-1.6,10.6-6.3,12.2-12.2
		C149.4,70.9,149.7,38.8,145.5,21.8z"/>
</g>
<g id="Layer_2">
</g>
<g id="Layer_4">
	<g>
		<g>
			<path class="st1" d="M47.3,34.8c0-12.5,7.9-19.8,18.1-19.8c4.8,0,8.7,2.3,11.3,4.8l-4.7,5.3c-1.8-1.7-3.8-2.7-6.6-2.7
				c-5.4,0-9.3,4.6-9.3,12.1c0,7.8,3.9,12.3,9.6,12.3c2.7,0,5-1.3,6.8-3.3l4.7,5.2c-3.1,3.6-7.3,5.6-12.4,5.6
				C55.4,54.2,47.3,47.5,47.3,34.8z"/>
			<path class="st1" d="M82.9,34.8C82.9,22.3,90.8,15,101,15c4.8,0,8.7,2.3,11.3,4.8l-4.7,5.3c-1.8-1.7-3.8-2.7-6.6-2.7
				c-5.4,0-9.3,4.6-9.3,12.1c0,7.8,3.9,12.3,9.6,12.3c2.7,0,5-1.3,6.8-3.3l4.7,5.2c-3.1,3.6-7.3,5.6-12.4,5.6
				C91,54.2,82.9,47.5,82.9,34.8z"/>
			<path class="st1" d="M57.3,65.9H45.9v-7.2h31.2v7.2H65.8v30.6h-8.6V65.9z"/>
			<path class="st1" d="M83.8,58.7h13.4c8,0,14.6,2.8,14.6,11.8c0,8.7-6.6,12.4-14.6,12.4h-4.9v13.6h-8.6V58.7z M96.5,76.1
				c4.5,0,6.9-1.9,6.9-5.6c0-3.7-2.4-5-6.9-5h-4.2v10.6H96.5z M101.6,75.2l12.1,21.3h-9.6l-8.4-15.9L101.6,75.2z"/>
		</g>
	</g>
</g>
</svg>
